<svg width="338.92557" height="415.29296" xmlns="http://www.w3.org/2000/svg">
 <g>
  <title>Layer 1</title>
  <path id="uuid-0273e7bd-2c5c-4a7f-b62c-18eea742226e-765" d="m168.92279,70.72124c6.20006,-5.12306 13.86909,-6.07666 17.12879,-2.13037c3.2597,3.9463 0.87559,11.29697 -5.32737,16.42103c-2.44975,2.08084 -5.3622,3.54476 -8.49369,4.26925l-26.54405,21.37487l-9.7651,-12.67015l27.20447,-19.72667c1.30258,-2.93957 3.29036,-5.52436 5.79694,-7.53798l0.00001,0.00002z" fill="#ffb6b6"/>
  <path d="m15.50119,118.94868c-0.01345,-0.94525 -0.00459,-9.19091 6.09985,-14.40256c7.01233,-5.98673 16.9071,-3.56355 20.3776,-2.71366c8.01693,1.96329 8.67442,5.40237 16.20317,8.93598c14.08546,6.61103 -3.5631,3.22722 4.81818,1.10732c2.90113,-0.73379 44.63804,-3.62833 55.02716,-10.02263c20.20554,-12.43611 33.97284,-19.97737 33.97284,-19.97737l9,18s-13.01399,18.09572 -31.33009,31.5013c-18.78816,13.75105 -28.18224,20.62664 -42.4587,23.28316c-1.22942,0.22878 -31.46585,5.39136 -55.81886,-12.80293c-5.55484,-4.15004 -15.73256,-11.7539 -15.89116,-22.9086l0.00001,-0.00001z" fill="#e6e6e6" id="svg_4"/>
  <g id="svg_5">
   <circle cx="188.19977" cy="74.33361" r="25.13289" fill="#536dfe" opacity="0.2" id="svg_6"/>
   <circle cx="212.3457" cy="85.52001" r="25.13289" fill="#fff" id="svg_7"/>
   <circle cx="212.3457" cy="85.52001" r="25.13289" fill="#536dfe" opacity="0.5" id="svg_8"/>
   <circle cx="237.83306" cy="97.32788" r="25.13289" fill="#fff" id="svg_9"/>
   <circle cx="237.83306" cy="97.32788" r="25.13289" fill="#536dfe" opacity="0.8" id="svg_10"/>
   <circle cx="260.63755" cy="107.89281" r="25.13289" fill="#536dfe" id="svg_11"/>
  </g>
  <g id="svg_12">
   <path d="m70.20778,127.49749c-1.33478,-2.25069 -7.10919,0.15916 -8.1708,-1.88344c-1.05785,-2.03522 4.30724,-5.13625 7.37242,-12.2203c0.55281,-1.27751 4.03609,-9.32803 1.45742,-11.81214c-4.88783,-4.7086 -27.25471,14.7226 -35.08209,8.36378c-1.71786,-1.39548 -2.91794,-4.18131 -8.11695,-8.70435c-2.06832,-1.79935 -3.31896,-2.61176 -4.52936,-2.3095c-1.71747,0.42886 -1.85353,2.72746 -3.69518,7.24698c-2.76191,6.77793 -4.39543,6.36865 -6.00464,11.77634c-1.19458,4.01438 -0.9217,6.34829 -2.3274,6.80297c-1.98919,0.64346 -3.82014,-3.61452 -6.34111,-3.23327c-2.57249,0.38911 -4.12776,5.3468 -4.619,9.05872c-0.92189,6.9657 1.63622,11.56213 3.05409,16.39529c1.54079,5.25243 2.45525,13.24023 -1.10301,24.5481l-35.21877,99.22915c7.77523,-20.36152 30.2882,-76.17789 39.74814,-96.91965c2.73093,-5.9877 5.74623,-12.06109 11.93758,-14.45806c5.96083,-2.30781 14.14726,-0.92995 24.58399,-3.44425c1.21889,-0.29358 4.60134,-1.1542 5.02707,-3.14368c0.352,-1.64476 -1.63758,-2.56284 -1.33189,-4.1033c0.41,-2.06629 4.32248,-2.09167 9.13042,-4.47557c3.39027,-1.68105 5.50239,-3.68018 7.31867,-5.39939c0.5476,-0.51831 8.68742,-8.31833 6.91051,-11.31443l-0.0001,0l-0.00001,0z" fill="#f2f2f2" id="svg_13"/>
   <path d="m-68.35338,179.73586c-1.4898,0.00569 -1.97308,3.53515 -3.28191,3.46683c-1.30415,-0.06803 -1.27814,-3.59599 -3.87061,-7.14441c-0.46751,-0.63989 -3.41371,-4.67241 -5.377,-4.12347c-3.72128,1.04038 -0.63791,17.62471 -6.01732,19.63175c-1.18054,0.44049 -2.89415,0.2257 -6.61413,1.47238c-1.47991,0.49597 -2.2395,0.87538 -2.44039,1.55667c-0.28504,0.96666 0.80383,1.69673 2.49067,3.90457c2.52975,3.31119 1.85753,3.99489 4.04733,6.34497c1.62561,1.74459 2.84986,2.28408 2.66739,3.10518c-0.25812,1.16196 -2.87625,0.83206 -3.41651,2.17933c-0.55126,1.37487 1.43325,3.56863 3.11333,4.88074c3.15285,2.4623 6.14687,2.53298 8.92812,3.23163c3.02249,0.75925 7.20684,2.61519 11.73012,7.62431l38.54058,45.91638c-7.75019,-9.69109 -28.64951,-36.8454 -36.10019,-47.47309c-2.15087,-3.06798 -4.26169,-6.30029 -3.65171,-10.03069c0.58721,-3.5915 3.62552,-7.21185 5.40281,-13.05974c0.2076,-0.68297 0.76113,-2.5914 -0.09244,-3.37439c-0.7057,-0.64732 -1.73035,0.06431 -2.39823,-0.53023c-0.89584,-0.79746 0.22058,-2.72505 0.43774,-5.77262c0.15313,-2.14899 -0.21865,-3.76244 -0.53838,-5.14995c-0.0964,-0.4183 -1.57611,-6.66392 -3.55927,-6.6563l0,0.00014l0,0.00001z" fill="#f2f2f2" id="svg_14"/>
   <path d="m-38.63241,186.40755l-0.89757,-8.01245l0.41009,-0.60742c1.89767,-2.8088 2.86491,-5.55184 2.87649,-8.1556c0.00193,-0.41395 -0.01742,-0.82795 -0.03676,-1.24963c-0.07739,-1.67135 -0.17407,-3.74893 0.9092,-6.17084c0.60742,-1.35022 2.3136,-4.47629 4.87866,-4.0894c0.6906,0.09673 1.21291,0.41395 1.60945,0.78535c0.05804,-0.09283 0.11801,-0.1857 0.18184,-0.28629c0.79891,-1.2187 1.43147,-1.74097 2.04082,-2.24393c0.46813,-0.38689 0.95175,-0.78535 1.71004,-1.72939c0.33271,-0.41395 0.59193,-0.77763 0.81054,-1.08327c0.66353,-0.92464 1.53013,-2.02731 3.05833,-2.00796c1.63265,0.07739 2.48767,1.42761 3.05447,2.32132c1.01172,1.59396 1.47016,2.74304 1.77387,3.50519c0.11029,0.27857 0.23602,0.59193 0.29985,0.68867c0.52617,0.77377 4.80326,0.05027 6.41458,-0.21281c3.61934,-0.60356 6.7512,-1.12583 8.0415,1.1568c0.92469,1.63265 0.23795,3.79148 -2.10277,6.58871c-0.72929,0.87051 -1.50499,1.53206 -2.19366,2.05052c0.57066,0.34047 1.0813,0.86274 1.28837,1.68298l0,0c0.48748,1.94215 -1.18194,3.88822 -4.95991,5.79173c-0.9382,0.47585 -2.20138,1.11039 -3.97139,1.41603c-0.83374,0.14315 -1.58431,0.17798 -2.22652,0.19733c-0.01356,0.3714 -0.10059,0.77377 -0.32692,1.18773c-0.66353,1.2187 -2.04468,1.79901 -4.12617,1.65972c-2.2904,-0.11994 -4.17644,-0.5571 -5.84007,-0.94013c-1.45274,-0.33271 -2.70435,-0.61514 -3.68703,-0.54938c-1.82221,0.14701 -3.22666,1.60559 -4.87476,3.49747l-4.11454,4.809l-0.00005,0l0.00002,-0.00005z" fill="#f2f2f2" id="svg_15"/>
   <path d="m-34.46871,138.70138l-7.52275,2.90057l-0.69156,-0.24263c-3.19829,-1.12317 -6.09693,-1.36301 -8.61848,-0.71376c-0.40093,0.10315 -0.79645,0.22685 -1.19945,0.35254c-1.59705,0.49877 -3.58219,1.11931 -6.19965,0.68577c-1.46017,-0.24504 -4.91673,-1.10252 -5.19313,-3.68182c-0.08158,-0.69253 0.09278,-1.27824 0.35147,-1.75602c-0.10455,-0.03257 -0.20958,-0.06701 -0.32306,-0.10325c-1.38148,-0.4637 -2.04714,-0.94307 -2.68823,-1.40493c-0.49298,-0.35471 -1.00111,-0.72143 -2.10658,-1.21547c-0.48483,-0.21682 -0.90235,-0.37531 -1.25344,-0.50924c-1.06272,-0.40725 -2.34911,-0.96589 -2.718,-2.44903c-0.33927,-1.59888 0.74994,-2.76842 1.47064,-3.5434c1.28523,-1.38293 2.28041,-2.11787 2.94061,-2.60496c0.24147,-0.17731 0.51271,-0.37844 0.5901,-0.46471c0.615,-0.70522 -1.16968,-4.6589 -1.83288,-6.15082c-1.50186,-3.34786 -2.80147,-6.24481 -0.92073,-8.07189c1.34472,-1.30854 3.60713,-1.19188 6.9066,0.36276c1.02702,0.48463 1.86371,1.06716 2.53988,1.60182c0.18459,-0.63835 0.56024,-1.26482 1.30115,-1.67308l0,0c1.75501,-0.96415 4.06084,0.15704 6.86038,3.32861c0.69827,0.7868 1.63246,1.84774 2.37705,3.48232c0.34993,0.77016 0.57399,1.48734 0.75563,2.10368c0.36272,-0.0811 0.77397,-0.09895 1.23182,0.01496c1.34713,0.33271 2.25884,1.52149 2.65205,3.57023c0.46495,2.24591 0.52048,4.18117 0.57196,5.88754c0.04665,1.48965 0.0909,2.77194 0.40382,3.7058c0.60443,1.72534 2.3715,2.71385 4.61958,3.8282l5.69538,2.76017l-0.00019,0.00005l0.00001,-0.00001z" fill="#f2f2f2" id="svg_16"/>
   <path d="m-38.63241,115.09645l-0.89757,-8.01245l0.41009,-0.60742c1.89767,-2.8088 2.86491,-5.55184 2.87649,-8.1556c0.00193,-0.41395 -0.01742,-0.82795 -0.03676,-1.24963c-0.07739,-1.67135 -0.17407,-3.74893 0.9092,-6.17084c0.60742,-1.35022 2.3136,-4.47629 4.87866,-4.0894c0.6906,0.09673 1.21291,0.41395 1.60945,0.78535c0.05804,-0.09283 0.11801,-0.1857 0.18184,-0.28629c0.79891,-1.2187 1.43147,-1.74097 2.04082,-2.24393c0.46813,-0.38689 0.95175,-0.78535 1.71004,-1.72939c0.33271,-0.41395 0.59193,-0.77763 0.81054,-1.08327c0.66353,-0.92464 1.53013,-2.02731 3.05833,-2.00796c1.63265,0.07739 2.48767,1.42761 3.05447,2.32132c1.01172,1.59396 1.47016,2.74304 1.77387,3.50519c0.11029,0.27857 0.23602,0.59193 0.29985,0.68867c0.52617,0.77377 4.80326,0.05027 6.41458,-0.21281c3.61934,-0.60356 6.7512,-1.12583 8.0415,1.1568c0.92469,1.63265 0.23795,3.79148 -2.10277,6.58871c-0.72929,0.87051 -1.50499,1.53206 -2.19366,2.05052c0.57066,0.34047 1.0813,0.86274 1.28837,1.68298l0,0c0.48748,1.94215 -1.18194,3.88822 -4.95991,5.79173c-0.9382,0.47585 -2.20138,1.11039 -3.97139,1.41603c-0.83374,0.14315 -1.58431,0.17798 -2.22652,0.19733c-0.01356,0.3714 -0.10059,0.77377 -0.32692,1.18773c-0.66353,1.2187 -2.04468,1.79901 -4.12617,1.65972c-2.2904,-0.11994 -4.17644,-0.5571 -5.84007,-0.94013c-1.45274,-0.33271 -2.70435,-0.61514 -3.68703,-0.54938c-1.82221,0.14701 -3.22666,1.60559 -4.87476,3.49747l-4.11454,4.809l-0.00005,0l0.00002,-0.00005z" fill="#f2f2f2" id="svg_17"/>
   <path d="m-30.43426,270.6252l-1.67912,-1.05235l-0.40623,-1.93829l0.40623,1.93829l-1.95764,0.22439c-0.03097,-0.18184 -0.13736,-0.5997 -0.29787,-1.25353c-0.8763,-3.58258 -3.54774,-14.48508 -5.77624,-31.65511c-1.55532,-11.98578 -2.43547,-24.30812 -2.61731,-36.63051c-0.18184,-12.34169 0.40237,-21.68506 0.87051,-29.1945c0.35398,-5.66402 0.78347,-11.05723 1.20514,-16.3112c1.12197,-14.03629 2.1801,-27.2949 1.39277,-41.9734c-0.17407,-3.27694 -0.53973,-10.09775 -4.52463,-17.35578c-2.31167,-4.20934 -5.49573,-7.94665 -9.4652,-11.10364l2.46833,-3.10282c4.38149,3.4897 7.90409,7.62943 10.47113,12.30304c4.41825,8.04724 4.81676,15.47939 5.00825,19.05034c0.80084,14.93773 -0.26888,28.32404 -1.40247,42.49571c-0.41786,5.23458 -0.8473,10.60458 -1.19935,16.24539c-0.46427,7.43987 -1.04265,16.7019 -0.86274,28.885c0.17798,12.17534 1.04844,24.34681 2.58248,36.18172c2.20138,16.95341 4.83418,27.69342 5.69885,31.22181c0.46041,1.88416 0.5571,2.27877 0.08511,3.02548l0,-0.00005l0,0.00001z" fill="#f2f2f2" id="svg_18"/>
   <path d="m-60.54959,90.61426c-0.16249,0 -0.32692,-0.00386 -0.49327,-0.01549c-3.37367,-0.18184 -6.49776,-2.20138 -9.28722,-6.00063c-1.30767,-1.78743 -1.97699,-3.82632 -3.31177,-7.89251c-0.20698,-0.62677 -1.21291,-3.80697 -1.82419,-8.18267c-0.40044,-2.85912 -0.35012,-4.05457 0.21667,-5.11078c0.6287,-1.17615 1.64621,-1.99633 2.79139,-2.54957c-0.05027,-0.37917 -0.0097,-0.76991 0.15477,-1.16843c0.67511,-1.652 2.47026,-1.43533 3.44136,-1.33087c0.49134,0.0619 1.10455,0.14315 1.76615,0.10831c1.04072,-0.05027 1.5998,-0.35982 2.44705,-0.82409c0.81054,-0.44493 1.81835,-0.99817 3.3137,-1.30381c2.94809,-0.61514 5.41835,0.22053 6.23274,0.4952c4.28475,1.42761 6.39717,4.75872 8.84229,8.61597c0.48748,0.77377 2.16076,3.5903 3.26531,7.45145c0.79698,2.7856 0.68481,4.02364 0.44493,4.94442c-0.48748,1.89188 -1.63844,2.97516 -4.5614,5.36614c-3.05254,2.50316 -4.5846,3.7567 -5.90004,4.51884c-3.06219,1.76808 -4.98505,2.87842 -7.53848,2.87842l0,0.0001l0.00001,0z" fill="#f2f2f2" id="svg_19"/>
  </g>
  <circle cx="43.41963" cy="41.8183" r="31.35231" fill="#ffb6b6" id="svg_21"/>
  <g id="svg_22">
   <polygon points="288.95928955078125,252.4554443359375 256.6706848144531,219.404296875 240.00308227539062,236.79055786132812 264.05926513671875,268.4807434082031 287.9206237792969,271.2098083496094 288.95928955078125,252.4554443359375 " fill="#ffb6b6" id="svg_23"/>
   <path d="m104.59018,190.47704c1.88857,0.15692 7.89007,1.35928 13.62641,-1.79676c3.91484,-2.15387 5.92265,-5.35646 6.60076,-6.37492c8.41291,-12.63529 40.70354,-32.3386 69.68363,-33.55112c6.56277,-0.27457 10.88253,0.48586 14.80888,2.53252c5.56743,2.90211 7.79007,7.05924 14.85498,16.79751c3.86456,5.32688 8.14065,10.34531 12.05176,15.6381c22.89761,30.98673 31.57809,33.41933 30.69089,43.35349c-0.98437,11.02209 -12.87155,21.47919 -20.77229,20.27203c-3.23557,-0.49436 -4.48861,-2.74421 -8.8115,-7.29884c-12.67503,-13.35438 -17.91904,-10.88716 -26.94319,-21.11588c-10.53585,-11.94223 -9.15661,-21.84423 -14.65344,-22.2267c-5.09746,-0.35467 -7.26369,8.09257 -18.14632,19.31415c-4.97964,5.13476 -8.52567,7.49028 -19.32879,14.98488c-42.06982,29.18579 -42.74126,31.23684 -51.23141,33.56451c-3.71461,1.01839 -30.07911,8.24653 -39.47092,-3.25614c-14.69706,-18.00039 20.02356,-72.2507 37.04055,-70.83684l0,0.00001z" fill="#2f2e41" id="svg_24"/>
   <path d="m279.0879,259.92421c2.3747,-1.06633 5.15137,-2.31312 6.04472,-5.1803c0.60449,-1.94008 0.25639,-4.33223 -0.99307,-5.98523c-1.44165,-1.90726 -3.57548,-2.15863 -3.48915,-2.49608c0.13145,-0.51383 5.17729,-0.31297 10.71634,1.64505c1.04526,0.36949 5.78059,2.09976 11.80411,6.8023c4.82606,3.76768 4.17661,4.52299 7.2029,6.69545c9.28962,6.66861 18.00248,1.41287 23.02914,7.66672c1.93996,2.41361 2.76736,5.84038 1.95095,8.6112c-1.63952,5.56439 -9.61248,7.47928 -13.96999,8.46791c-10.49443,2.381 -18.43771,0.43726 -26.73198,-0.96036c-28.2074,-4.75317 -44.05602,-0.42414 -46.17728,-6.95898c-0.40147,-1.2368 0.25076,-1.13149 2.42568,-10.20766c2.1466,-8.95807 2.07617,-11.41819 3.90438,-12.13555c2.75194,-1.0798 4.59974,3.832 11.53217,5.51299c6.14328,1.48961 11.21238,-0.78653 12.75108,-1.47746z" fill="#2f2e41" id="svg_25"/>
  </g>
  <g id="svg_26">
   <polygon points="231.55545043945312,360.5783386230469 223.39767456054688,315.0989074707031 199.84298706054688,320.1257019042969 201.95309448242188,359.856201171875 220.16473388671875,375.513427734375 231.55545043945312,360.5783386230469 " fill="#ffb6b6" id="svg_27"/>
   <path d="m113.80218,205.76408c1.47458,1.19034 5.76537,5.55531 12.28414,6.16501c4.44882,0.41611 7.90855,-1.10642 9.04156,-1.56836c14.05646,-5.73092 51.83954,-3.90205 76.50003,11.36805c5.58456,3.45805 8.73193,6.51298 10.83152,10.41128c2.97713,5.52767 2.48188,10.2156 2.85934,22.24075c0.20649,6.57783 0.92671,13.13152 1.19087,19.70728c1.54645,38.49787 7.36313,45.38515 1.05061,53.10699c-7.00383,8.56748 -22.71196,10.54513 -28.57157,5.1097c-2.39968,-2.22596 -2.17313,-4.79123 -3.19252,-10.98742c-2.98899,-18.1676 -8.71359,-19.0708 -10.43682,-32.60197c-2.01189,-15.79789 4.6897,-23.21682 0.35612,-26.61997c-4.01874,-3.15588 -10.55463,2.61738 -25.86082,5.79169c-7.00377,1.45251 -11.26065,1.41036 -24.4082,1.54542c-51.19964,0.52605 -52.90697,1.84615 -61.23923,-0.99535c-3.64552,-1.24322 -29.51974,-10.06694 -30.83182,-24.85869c-2.05321,-23.14739 57.13999,-48.53996 70.42679,-37.81438l0,-0.00003z" fill="#2f2e41" id="svg_28"/>
   <path d="m219.19338,361.21524c2.56373,0.45115 5.56141,0.97869 7.91065,-0.89211c1.58961,-1.26588 2.64486,-3.44073 2.53921,-5.51013c-0.1219,-2.38771 -1.74638,-3.79393 -1.48546,-4.02467c0.3973,-0.35135 4.4597,2.64827 7.9435,7.37882c0.65742,0.89268 3.60406,4.98347 5.94759,12.25702c1.87764,5.82758 0.91611,6.08788 2.2003,9.58486c3.94203,10.73442 14.1028,11.27815 14.75035,19.27556c0.24989,3.0865 -0.98973,6.3866 -3.2212,8.22088c-4.48123,3.68361 -12.15376,0.79097 -16.31454,-0.83789c-10.02065,-3.92285 -15.50185,-9.99165 -21.58014,-15.80566c-20.67117,-19.77252 -36.21605,-25.09006 -34.30173,-31.68848c0.36231,-1.24884 0.84286,-0.79544 7.73911,-7.08423c6.8065,-6.20697 8.12967,-8.28215 10.04525,-7.84912c2.88345,0.65183 1.65425,5.75372 6.44656,11.03747c4.24679,4.68226 9.71937,5.64536 11.38055,5.93768z" fill="#2f2e41" id="svg_29"/>
  </g>
  <path d="m47.69405,47.81197c1.22056,-4.36611 -0.31249,-5.95722 1.25006,-7.91705c0.00003,-0.00005 0.62879,-0.78866 6.25031,-2.91681l0,0c-1.65858,-9.62327 -0.41671,-11.2505 -0.41669,-11.25055c1.43127,-1.8754 4.29841,-2.32876 6.25031,-2.08344c4.12819,0.51888 4.85892,4.25059 7.50037,4.16687c3.64894,-0.11567 8.0254,-7.4199 6.66699,-13.75067c-1.1081,-5.16413 -5.88596,-8.99921 -7.08368,-8.33374c-1.18752,0.65982 -5.46243,-2.24971 -7.08368,-1.66675c-1.10718,0.39812 -6.31869,-0.13154 -7.50037,0.41669c-1.29047,0.59873 -4.98615,4.32638 -5.33949,3.85669c-2.45539,-3.26381 -2.4031,-4.40334 -3.82763,-5.10676c-2.52423,-1.24645 -5.26853,1.05738 -10.00049,3.3335c-9.73614,4.68315 -12.58703,1.88959 -17.08417,5.83362c-2.27174,1.99234 -3.48993,5.8 -5.83362,13.33398c-3.27762,10.5362 -4.91642,15.8043 -3.3335,20.83435c1.61431,5.12975 3.99156,4.01326 7.50037,11.25055c3.90586,8.05632 2.55966,12.73907 6.25031,14.58405c2.85239,1.42595 7.43638,0.51842 9.16711,-2.08344c2.96322,-4.45461 -4.69577,-10.48055 -2.08344,-17.50085c1.60355,-4.30934 6.55023,-7.57687 9.5838,-6.66699c3.43004,1.0288 3.68263,7.17885 5.83362,7.08368c1.84195,-0.08149 3.1208,-4.65609 3.3335,-5.41693l0.00001,0z" fill="#2f2e41" id="svg_30"/>
  <path d="m23.94289,77.81343c6.41582,-7.1937 32.54884,0.25199 35.00171,11.66724c1.00888,4.69526 -2.71559,6.67778 -1.66675,12.08392c1.53407,7.90724 10.22012,7.36822 16.66748,15.41742c9.1533,11.42746 -0.27645,22.59815 10.00049,41.6687c2.19602,4.07511 4.04696,7.50978 7.91705,10.83386c8.88079,7.62783 17.14571,5.01184 21.66772,12.08392c3.38161,5.2886 1.99221,11.80701 1.66675,13.33398c-1.33457,6.26124 -4.95164,7.78684 -7.50037,12.9173c-4.24047,8.53583 0.56076,14.80261 0.83337,25.00122c0.3411,12.76028 -6.43985,30.44826 -20.00098,36.25177c-15.2353,6.51999 -33.61034,-4.27862 -42.50207,-15.00073c-5.30577,-6.39802 -6.84594,-12.29974 -9.16711,-19.58429c-10.37389,-32.55642 -16.23462,-29.61194 -24.16785,-55.41937c-9.06912,-29.50258 -10.852,-64.06639 0,-75.00366c1.43839,-1.44971 5.39684,-4.80045 7.91705,-10.83386c3.39128,-8.11878 0.46152,-12.19725 3.3335,-15.41742l0.00001,0z" fill="#e6e6e6" id="svg_31"/>
  <path d="m227.70885,105.63567c1.57726,10.35715 -5.56582,20.06666 -15.92297,21.64391c-10.35715,1.57726 -20.06666,-5.56582 -21.64391,-15.92297c-1.57726,-10.35715 5.56582,-20.06666 15.92297,-21.64391c10.35715,-1.57726 20.06666,5.56582 21.64391,15.92297zm-35.58968,5.41984c1.41127,9.26718 10.09843,15.65814 19.36561,14.24687s15.65814,-10.09843 14.24687,-19.36561s-10.09843,-15.65814 -19.36561,-14.24687s-15.65814,10.09843 -14.24687,19.36561z" fill="#3f3d56" id="svg_32"/>
  <path d="m199.19548,109.97789c0.81705,5.36521 5.84646,9.06524 11.21167,8.24819s9.06524,-5.84646 8.24819,-11.21167c-0.81705,-5.36521 -5.84646,-9.06524 -11.21167,-8.24819c-5.36521,0.81705 -9.06524,5.84646 -8.24819,11.21167z" fill="#3f3d56" id="svg_33"/>
  <path id="uuid-d43be532-fa37-4a43-8eed-58df037ae9c1-766" d="m178.47227,103.7154c7.83621,-1.8112 15.12263,0.76395 16.27447,5.75115c1.15184,4.9872 -4.26667,10.49685 -12.10592,12.30764c-3.12153,0.76629 -6.38119,0.7739 -9.50625,0.02216l-33.29924,7.25482l-2.83532,-13.17542l32.91716,-8.00874c2.47923,-2.04725 5.41278,-3.47085 8.5551,-4.15161z" fill="#ffb6b6"/>
  <path d="m19.42164,112.83576c0.20624,-0.92258 2.1281,-8.94114 9.27521,-12.59414c8.21006,-4.19627 17.27253,0.45666 20.45112,2.08862c7.34259,3.76988 7.18417,7.26766 13.68755,12.45173c12.16708,9.69886 27.81373,9.4865 36.45816,9.36916c2.99222,-0.04061 12.23328,-0.34603 23.82254,-4.15523c22.53966,-7.40841 36.93915,-16.70515 36.93915,-16.70515l5.91628,20.04609s-17.45414,19.28887 -38.38087,28.07871c-21.46607,9.01634 -82.69082,9.6114 -97.19405,8.88286c-1.24895,-0.06272 18.63365,1.85636 -0.83311,-21.49202c-4.44031,-5.32567 -12.57593,-15.08355 -10.14197,-25.97062l-0.00001,-0.00001z" fill="#e6e6e6" id="svg_35"/>
 </g>

</svg>