<svg width="333.3608" height="530.21141" xmlns="http://www.w3.org/2000/svg">
 <g>
  <title>Layer 1</title>
  <path id="b-773" d="m17.52982,170.68488c-10.02271,2.70906 -16.74914,10.07644 -15.02403,16.45467c1.72511,6.37824 11.2474,9.35107 21.27332,6.6397c4.0198,-1.02815 7.73493,-3.00401 10.83456,-5.76229l42.32169,-12.01471l-6.06147,-19.74015l-41.07815,13.94016c-4.06852,-0.82103 -8.27452,-0.65555 -12.26591,0.48262l-0.00001,0z" fill="#ffb6b6"/>
  <path d="m194.8824,111.46163s11.94867,17.52796 -14.9802,30.7505c-26.92887,13.22255 -76.70697,32.09424 -76.70697,32.09424l-68.73045,15.92312l-10.37914,-22.75481l81.55524,-22.22032l66.45681,-37.08764l22.78472,3.2949l-0.00001,0.00001z" fill="#3f3d56" id="svg_10"/>
  <path d="m186.88776,64.80732c-0.30559,8.30862 5.67572,18.17153 11.99981,18.37403c7.60788,0.24368 43.57329,2.80519 44.7295,-0.17782c8.02756,-20.71108 -29.77817,-63.67396 -38.29999,-64.91337c-4.57957,-0.66601 -10.06335,5.9092 -12.17165,11.33725c-2.95447,7.6066 1.40568,11.19382 -1.05525,21.44145c-1.87658,7.81446 -4.9888,8.12999 -5.20242,13.93846z" fill="#2f2e41" id="svg_11"/>
  <g id="svg_12">
   <polygon points="124.28363037109375,392.3403015136719 99.04144287109375,398.125 124.40524291992188,473.38519287109375 141.51016235351562,469.46649169921875 124.28363037109375,392.3403015136719 " fill="#ffb6b6" id="svg_13"/>
   <path d="m115.26383,449.91484l9.76292,1.43186l1.50498,5.22972s0.32536,-6.65233 11.10799,-11.21113l2.80283,4.68076s5.77229,3.71423 7.63765,12.92025l4.14219,24.90083l-8.47672,2.24884l-6.22014,-16.35906s-3.4225,-3.12878 -8.86656,18.03551c0,0 -2.20451,7.11265 -22.20382,6.28871c-2.74878,-0.11324 -5.16739,-1.94721 -5.90103,-4.59869c-0.40487,-1.46326 -0.22585,-2.97603 1.46219,-3.98974c4.29683,-2.58036 9.29382,-2.33856 11.22161,-6.92485c1.92779,-4.58628 2.02591,-32.65302 2.02591,-32.65302l0,0.00001z" fill="#2f2e41" id="svg_14"/>
  </g>
  <g id="svg_15">
   <polygon points="179.12310791015625,426.5570373535156 156.58206176757812,426 159.73760986328125,505.24945068359375 177.28286743164062,505.56219482421875 179.12310791015625,426.5570373535156 " fill="#ffb6b6" id="svg_16"/>
   <path d="m156.51301,480.26895l9.13143,3.73923l0.20221,5.4382s1.91669,-6.37854 13.47952,-8.2085l1.59403,5.2177s4.70882,4.99418 4.30392,14.37856l-1.97195,25.16586l-8.76879,0.14282l-2.10052,-17.37518s-2.56897,-3.86046 -12.94625,15.37173c0,0 -3.85139,6.3731 -23.06467,0.76053c-2.64074,-0.77141 -4.54693,-3.13352 -4.62093,-5.88363c-0.04084,-1.51769 0.49697,-2.94292 2.37935,-3.52061c4.79152,-1.47049 9.58347,-0.03327 12.5583,-4.02085c2.97483,-3.98757 9.82435,-31.20587 9.82435,-31.20587l0,0.00001z" fill="#2f2e41" id="svg_17"/>
  </g>
  <polygon points="225.63677978515625,339.99652099609375 106.423095703125,330.7720031738281 139.97140502929688,193.24061584472656 220.236572265625,181.6757049560547 225.63677978515625,339.99652099609375 " fill="#2f2e41" id="svg_18"/>
  <polygon points="209.1956787109375,87.19287109375 234.31390380859375,73.81105041503906 254.59747314453125,97.76052856445312 213.8380126953125,228.39999389648438 139.27902221679688,195.3855743408203 195.90896606445312,98.57106018066406 209.1956787109375,87.19287109375 " fill="#536dfe" id="svg_19"/>
  <path d="m212.37917,204.81245s7.99865,41.24344 -16.76982,62.67993l-7.58177,24.10429l-8.18624,44.49141l0.74071,114.91192l-30,-3l-12,-109.99601l-0.14266,-54.74468l-44.28904,37.92731l46.35131,91.03876l-37.7688,16.53838l-46.12859,-109.70919c-3.20519,-6.68292 -2.35048,-14.60438 2.20651,-20.44978l80.46822,-103.21922l73.10016,9.42688l0.00001,0z" fill="#2f2e41" id="svg_20"/>
  <path d="m243.47747,84.63075l-49.24818,45.94569c-11.65539,94.57932 -5.29297,181.42607 28.24251,256.61101l82.75742,-38.35635c-68.24059,-20.69727 -61.54814,-134.34365 -48.30715,-256.11285l-13.4446,-8.08749l0,-0.00001z" fill="#3f3d56" id="svg_21"/>
  <polygon points="201.0057373046875,98.72218322753906 208.58203125,87 166.67990112304688,111.63479614257812 133.54605102539062,203.45608520507812 194.6683349609375,127.17982482910156 201.0057373046875,98.72218322753906 " fill="#3f3d56" id="svg_22"/>
  <path id="c-774" d="m305.82155,271.43614c2.88799,9.97263 10.37455,16.56614 16.72089,14.72717c6.34634,-1.83898 9.1483,-11.41293 6.25795,-21.38873c-1.09992,-4.00076 -3.14194,-7.67994 -5.95525,-10.72971l-12.77013,-42.09991l-19.62852,6.41375l14.67302,40.82212c-0.74809,4.08256 -0.50737,8.28493 0.70204,12.25531z" fill="#ffb6b6"/>
  <path d="m241.56444,93.69881s17.17736,-12.44743 31.16828,14.09036c13.99092,26.53779 34.28526,75.75303 34.28526,75.75303l17.89161,68.2445l-22.44715,11.02874l-24.55474,-80.88303l-38.98205,-65.3636l2.63879,-22.87z" fill="#3f3d56" id="svg_23"/>
  <circle cx="221.1389" cy="44.83832" r="27.89568" fill="#ffb6b6" id="svg_24"/>
  <path d="m221.23094,33.95502c-1.57021,-0.15487 -2.37744,1.50548 -8.37414,3.82202c-2.12452,0.82072 -3.21224,1.23267 -4.46007,1.31286c-3.7932,0.2437 -6.74134,-1.85136 -8.71154,-3.25151c-3.20255,-2.27592 -5.26566,-3.742 -5.66863,-6.08582c-0.52588,-3.0586 2.93672,-6.47533 9.88334,-13.18386c3.40194,-3.28538 5.47494,-5.26989 8.80359,-7.63179c5.58326,-3.96168 8.37488,-5.94247 12.2882,-6.33118c5.18313,-0.51474 9.12363,1.95859 14.80962,5.52757c1.53612,0.96418 3.75083,1.42786 6.09874,1.60456c7.68606,0.57843 14.27526,5.70138 16.36557,13.12033c0.1597,0.56681 0.29388,1.07986 0.39451,1.51919c4.1263,18.01381 2.97494,36.7499 -2.67183,54.34643c-0.152,0.47367 -0.27918,0.91469 -0.37757,1.31662c-2.62308,10.71632 -38.65605,14.89376 -42.87064,5.83419c-2.65394,-5.70476 9.74899,-11.41278 11.60114,-28.42293c1.28943,-11.84192 -3.19345,-23.11047 -7.11029,-23.49665l0,-0.00003z" fill="#2f2e41" id="svg_25"/>
 </g>

</svg>